<svg width="27" height="27" viewBox="0 0 27 27" fill="none" xmlns="http://www.w3.org/2000/svg">
<path d="M15.2324 22.7872V14.092H18.2069L18.6531 10.7023H15.2324V8.53843C15.2324 7.55734 15.509 6.88874 16.945 6.88874L18.7735 6.888V3.85612C18.4573 3.81582 17.3719 3.72341 16.1085 3.72341C13.4704 3.72341 11.6644 5.30282 11.6644 8.20272V10.7023H8.68091V14.092H11.6644V22.7872H15.2324Z" fill="white"/>
<mask id="mask0_2_9" style="mask-type:alpha" maskUnits="userSpaceOnUse" x="8" y="3" width="11" height="20">
<path d="M15.2324 22.7872V14.092H18.2069L18.6531 10.7023H15.2324V8.53843C15.2324 7.55734 15.509 6.88874 16.945 6.88874L18.7735 6.888V3.85612C18.4573 3.81582 17.3719 3.72341 16.1085 3.72341C13.4704 3.72341 11.6644 5.30282 11.6644 8.20272V10.7023H8.68091V14.092H11.6644V22.7872H15.2324Z" fill="white"/>
</mask>
<g mask="url(#mask0_2_9)">
<rect x="0.340576" y="0.148926" width="26.2128" height="26.2128" fill="white"/>
</g>
</svg>
