<svg width="27" height="27" viewBox="0 0 27 27" fill="none" xmlns="http://www.w3.org/2000/svg">
<path d="M13.4469 11.5872V14.9234H18.1659C17.477 16.865 15.6221 18.2596 13.4469 18.2596C10.6879 18.2596 8.44262 16.0143 8.44262 13.2553C8.44262 10.4963 10.6879 8.25105 13.4469 8.25105C14.6429 8.25105 15.7939 8.67975 16.688 9.45874L18.8798 6.94327C17.3785 5.63549 15.4502 4.91488 13.4469 4.91488C8.84796 4.91488 5.10645 8.65639 5.10645 13.2553C5.10645 17.8542 8.84796 21.5957 13.4469 21.5957C18.0458 21.5957 21.7873 17.8542 21.7873 13.2553V11.5872H13.4469Z" fill="black"/>
<mask id="mask0_2_20" style="mask-type:alpha" maskUnits="userSpaceOnUse" x="5" y="4" width="17" height="18">
<path d="M13.4469 11.5872V14.9234H18.1659C17.477 16.865 15.6221 18.2596 13.4469 18.2596C10.6879 18.2596 8.44262 16.0143 8.44262 13.2553C8.44262 10.4963 10.6879 8.25105 13.4469 8.25105C14.6429 8.25105 15.7939 8.67975 16.688 9.45874L18.8798 6.94327C17.3785 5.63549 15.4502 4.91488 13.4469 4.91488C8.84796 4.91488 5.10645 8.65639 5.10645 13.2553C5.10645 17.8542 8.84796 21.5957 13.4469 21.5957C18.0458 21.5957 21.7873 17.8542 21.7873 13.2553V11.5872H13.4469Z" fill="white"/>
</mask>
<g mask="url(#mask0_2_20)">
<rect x="0.340576" y="0.148926" width="26.2128" height="26.2128" fill="white"/>
</g>
</svg>
